<svg width="35" height="35" viewBox="0 0 35 35" fill="none" xmlns="http://www.w3.org/2000/svg">
<g clip-path="url(#clip0)">
<circle cx="17.5" cy="17.5" r="17.5" fill="#B80E0F"/>
<path d="M27.1671 11.8767C25.2875 10.4318 22.5926 10.7841 21.1477 12.6637C20.7517 13.1788 20.4779 13.7771 20.3467 14.4133L22.0443 14.7607C22.3311 13.3763 23.6859 12.4865 25.0703 12.7733C25.4479 12.8516 25.8029 13.014 26.1088 13.2487C26.5488 13.5851 26.8665 14.0565 27.0133 14.5905L28.6849 14.1337C28.4393 13.2356 27.9062 12.4429 27.1671 11.8767Z" fill="white"/>
<path d="M17.5003 27.6639C12.2667 27.6673 8.02135 23.4274 8.01797 18.1938C8.01797 18.1906 8.01797 18.1873 8.01797 18.1841H6.28516C6.28334 24.3748 11.3004 29.3949 17.4912 29.3967C17.4942 29.3967 17.4973 29.3967 17.5003 29.3967C23.6844 29.3967 28.7155 24.3356 28.7155 18.1841H26.9827C26.9827 23.3825 22.729 27.6639 17.5003 27.6639Z" fill="white"/>
<path d="M10.5048 12.72C11.6534 12.7182 12.6617 13.4837 12.9686 14.5905L14.6408 14.1337C14.1278 12.2734 12.4349 10.9853 10.5052 10.9872C8.47057 10.9919 6.71722 12.4212 6.30273 14.4133L8.00037 14.7606C8.24773 13.5739 9.29253 12.7226 10.5048 12.72Z" fill="white"/>
</g>
<defs>
<clipPath id="clip0">
<rect width="35" height="35" fill="white"/>
</clipPath>
</defs>
</svg>
