<svg width="35" height="35" viewBox="0 0 35 35" fill="none" xmlns="http://www.w3.org/2000/svg">
<path d="M17.5 0.000244141C7.85055 0.000244141 0 7.85071 0 17.5001C0 27.1492 7.85055 34.9996 17.5 34.9996C27.1494 34.9996 35 27.1492 35 17.4997C35 7.85024 27.1494 0.000244141 17.5 0.000244141ZM17.5 33.2594C8.81035 33.2594 1.74025 26.1899 1.74025 17.4997C1.74025 8.80958 8.81035 1.7405 17.5 1.7405C26.1897 1.7405 33.2596 8.81005 33.2596 17.5002C33.2596 26.1899 26.1897 33.2594 17.5 33.2594ZM9.18784 16.5861C9.18784 15.1511 9.63373 13.919 10.2725 13.3753C8.39209 12.4066 6.60883 11.0269 6.45222 9.23428C6.42109 8.87527 6.68631 8.55857 7.04572 8.52728C7.40419 8.49715 7.72127 8.76121 7.75272 9.12015C7.95699 11.4624 13.1034 13.2914 15.0692 13.7987C15.0827 13.8022 15.0946 13.8082 15.1075 13.8126C15.1293 13.8201 15.1511 13.8268 15.1715 13.8365C15.1911 13.8452 15.2093 13.8551 15.2276 13.8651C15.2458 13.8758 15.2637 13.8865 15.2815 13.8983C15.2998 13.9115 15.3164 13.9257 15.333 13.9401C15.3482 13.9531 15.363 13.9667 15.3774 13.9813C15.3936 13.9983 15.4077 14.0166 15.4222 14.0353C15.4304 14.0458 15.44 14.0549 15.4479 14.066C15.4512 14.0714 15.4533 14.0772 15.457 14.0827C15.4695 14.1024 15.4795 14.1229 15.4894 14.1437C15.4987 14.1619 15.5077 14.1798 15.5151 14.1985C15.5226 14.218 15.5273 14.2382 15.5331 14.2586C15.5387 14.2794 15.5451 14.2998 15.5487 14.3213C15.5518 14.3404 15.5525 14.3603 15.5543 14.3803C15.5561 14.4031 15.5582 14.4256 15.5578 14.4479C15.5574 14.4661 15.5543 14.4844 15.5521 14.5027C15.5495 14.528 15.5463 14.5522 15.5408 14.5766C15.5395 14.5824 15.5399 14.5879 15.5383 14.5936C15.5368 14.5998 15.5325 14.604 15.5308 14.6098C15.5125 14.6738 15.4864 14.7357 15.4491 14.7921C15.4473 14.795 15.4446 14.7971 15.4429 14.8003C15.4085 14.8494 15.3659 14.8938 15.3175 14.9333C15.3085 14.9411 15.3001 14.9486 15.2911 14.9556C15.2838 14.9606 15.2781 14.9672 15.2706 14.9726L13.3942 14.6622C13.0875 14.5613 12.7442 14.4408 12.3806 14.3038C12.6534 14.9177 12.8193 15.7141 12.8193 16.5865C12.8193 18.5238 12.0065 20.095 11.0036 20.095C10.0006 20.0949 9.18784 18.5238 9.18784 16.5861ZM28.3199 9.23428C28.1636 11.0266 26.38 12.4071 24.4996 13.3753C25.1385 13.9191 25.5847 15.1512 25.5847 16.5861C25.5847 18.5238 24.7715 20.0949 23.7689 20.0949C22.7662 20.0949 21.9534 18.5238 21.9534 16.5861C21.9534 15.7137 22.1198 14.9172 22.3923 14.3033C22.0287 14.4404 21.6854 14.5607 21.3787 14.6616L19.5019 14.972C19.4947 14.9667 19.4888 14.9602 19.4816 14.955C19.4727 14.9481 19.4638 14.9406 19.4548 14.9328C19.4063 14.8932 19.3638 14.8492 19.3299 14.7998C19.3283 14.7965 19.3254 14.7945 19.3235 14.7915C19.2862 14.7352 19.2602 14.6736 19.2415 14.6092C19.2398 14.6039 19.2366 14.5993 19.2343 14.5935C19.2329 14.5877 19.2329 14.5822 19.2318 14.5765C19.2264 14.5521 19.2228 14.5279 19.2203 14.5026C19.2186 14.4843 19.2152 14.4661 19.2148 14.4477C19.2145 14.4251 19.2161 14.4025 19.2186 14.3802C19.2196 14.3602 19.2203 14.3403 19.2238 14.3211C19.2276 14.2997 19.2341 14.2793 19.2398 14.2584C19.2453 14.238 19.2501 14.2178 19.2576 14.1984C19.2649 14.1796 19.2747 14.1618 19.2833 14.1435C19.2935 14.1227 19.3033 14.1023 19.3156 14.0825C19.3193 14.077 19.321 14.0713 19.3247 14.0658C19.3326 14.0547 19.3424 14.0457 19.3503 14.0352C19.3649 14.0164 19.3791 13.9982 19.3953 13.9812C19.4098 13.9666 19.4243 13.9534 19.4394 13.94C19.4566 13.9255 19.4735 13.9117 19.4913 13.8981C19.5083 13.8865 19.5269 13.8756 19.545 13.865C19.5634 13.8549 19.5813 13.8445 19.6009 13.8363C19.6221 13.8271 19.6433 13.8199 19.665 13.8125C19.6783 13.808 19.6901 13.8021 19.7033 13.7985C21.669 13.2912 26.8157 11.4622 27.0196 9.11999C27.0512 8.76098 27.3681 8.49653 27.7266 8.52712C28.0861 8.55849 28.3514 8.87527 28.3199 9.23428ZM24.8811 29.0151C24.8811 29.3754 24.5896 29.6677 24.2286 29.6677C23.8683 29.6677 23.576 29.3754 23.576 29.0151C23.576 25.9562 20.8503 23.4683 17.5 23.4683C14.1496 23.4683 11.4242 25.9562 11.4242 29.0151C11.4242 29.3754 11.1321 29.6677 10.7716 29.6677C10.4108 29.6677 10.119 29.3754 10.119 29.0151C10.119 25.2365 13.4301 22.1631 17.5 22.1631C21.5698 22.1631 24.8811 25.2365 24.8811 29.0151Z" fill="#4F4F4F"/>
</svg>
