<svg width="30" height="30" viewBox="0 0 30 30" fill="none" xmlns="http://www.w3.org/2000/svg">
<path d="M29.8555 22.8953C29.8489 22.8726 29.8409 22.851 29.8308 22.8293L29.349 21.7812L24.0345 10.2138C23.7163 9.20995 22.8006 8.5384 21.7445 8.5384C20.5655 8.5384 19.5692 9.38263 19.3759 10.545L19.2067 11.5589H18.4546L16.1193 6.10993C14.7752 2.97316 11.8348 0.776767 8.44527 0.378063L7.99673 0.325708C5.99113 0.0891035 3.99912 0.483277 2.23415 1.46393C1.53441 1.85307 0.971589 2.42041 0.584463 3.08995L0.58396 3.08945C0.543183 3.15993 0.507945 3.23242 0.472706 3.30592L0.446025 3.36129C0.444011 3.36482 0.444011 3.36834 0.442501 3.37186C0.161092 3.9523 0 4.59365 0 5.26017V6.72007C0 7.33927 0.164113 7.94991 0.488311 8.5087L5.53755 16.2396V21.2964C5.53755 21.969 5.79933 22.6013 6.27455 23.0765L7.34279 24.1442C7.63175 24.4332 8.06318 24.5203 8.43973 24.3627C8.81729 24.2061 9.06145 23.8407 9.06145 23.4324V21.463C9.06145 21.311 9.13193 21.1736 9.25526 21.0845C9.3786 20.9954 9.53113 20.9717 9.67561 21.02C9.74961 21.0447 9.81657 21.0875 9.86943 21.1439L16.7385 28.4711C17.1317 28.8904 17.6275 29.2086 18.1732 29.3898C18.8775 29.6249 19.607 29.7412 20.3349 29.7412C21.2677 29.7412 22.1975 29.5499 23.0684 29.1688L27.9088 27.0525C28.6523 26.7277 29.2629 26.1468 29.6405 25.3917C30.0291 24.6139 30.1057 23.7274 29.8555 22.8953ZM2.72297 2.34339C4.30167 1.46594 6.08476 1.11506 7.87943 1.32549L8.32797 1.37784C11.36 1.73476 13.9914 3.69959 15.194 6.50612L17.6603 12.2606C17.7393 12.4459 17.9215 12.5657 18.1229 12.5657H19.6331C19.8793 12.5657 20.0892 12.3875 20.1295 12.1449L20.3686 10.7101C20.4814 10.0356 21.0598 9.54523 21.745 9.54523C22.3657 9.54523 22.9023 9.94444 23.081 10.5395C23.0876 10.5616 23.0956 10.5833 23.1057 10.6049L28.2224 21.7409L26.3527 22.5821L23.4455 19.3839C22.1467 17.9553 20.0822 17.5067 18.3082 18.2674L16.6313 18.9862C15.8626 19.3155 15.3093 20.0026 15.1512 20.8232C15.1432 20.8645 15.1412 20.9063 15.1351 20.9476L12.5904 18.4028L12.6674 14.822C12.6674 14.7999 12.6669 14.7777 12.6644 14.7556C12.6483 14.6121 12.613 14.4757 12.5687 14.3433C12.5612 14.3211 12.5536 14.299 12.5456 14.2773C12.4454 14.0075 12.2898 13.7674 12.089 13.567C12.0764 13.5544 12.0643 13.5418 12.0517 13.5297C11.9495 13.4326 11.8383 13.345 11.716 13.271C11.7124 13.269 11.7099 13.2655 11.7064 13.2634C11.6344 13.2201 11.5604 13.1824 11.4844 13.1487C11.4652 13.1401 11.4451 13.1346 11.4255 13.127C11.359 13.1003 11.2926 13.0762 11.2241 13.057C11.2105 13.053 11.1984 13.047 11.1848 13.0435C11.1677 13.0389 11.1506 13.0394 11.133 13.0354C11.0258 13.0102 10.918 12.9921 10.8083 12.9846C10.7897 12.9835 10.771 12.983 10.7524 12.982C10.6376 12.978 10.5224 12.9851 10.4081 13.0007C10.395 13.0027 10.3824 13.0032 10.3693 13.0057C10.1886 13.0339 10.0104 13.0842 9.83973 13.1628C9.34839 13.3898 8.97536 13.8026 8.79615 14.303L1.48306 3.54605C1.77906 3.0522 2.20193 2.63336 2.72297 2.34339ZM25.3877 23.0166L20.6943 25.1284C20.1255 25.3841 19.4474 25.2603 19.0064 24.8193L16.5548 22.3677C16.1943 22.0072 16.0433 21.5139 16.1399 21.0135C16.2361 20.5136 16.5598 20.1119 17.028 19.9115L18.7053 19.1926C19.1529 19.0009 19.6246 18.9082 20.0917 18.9082C21.0643 18.9082 22.0188 19.311 22.7009 20.0615L25.3877 23.0166ZM28.7273 24.9668C28.4675 25.4863 28.0336 25.8996 27.5055 26.1307L22.6647 28.2471C22.4548 28.3392 22.2378 28.4142 22.0188 28.4801C21.9695 28.4952 21.9196 28.5083 21.8698 28.5219C21.6569 28.5798 21.4414 28.6296 21.2224 28.6629C21.2179 28.6634 21.2134 28.6649 21.2083 28.6654C20.7089 28.7399 20.1975 28.7505 19.6885 28.6931V28.6941C19.2848 28.6488 18.8831 28.5657 18.4909 28.4348C18.1038 28.306 17.7514 28.0804 17.4725 27.7829L10.6039 20.4557C10.4373 20.2775 10.2263 20.1431 9.99427 20.0656C9.83872 20.0132 9.68014 19.988 9.52308 19.988C9.22002 19.988 8.92251 20.0832 8.66577 20.2684C8.27763 20.5478 8.05462 20.9838 8.05462 21.463L8.05814 23.4354C8.05814 23.4354 8.05714 23.4349 8.05462 23.4324L6.98638 22.3647C6.70144 22.0792 6.54438 21.7002 6.54438 21.2964V16.0896C6.54438 15.9919 6.51568 15.8963 6.46232 15.8142L1.34563 7.98112C1.12362 7.59903 1.00683 7.16307 1.00683 6.72057V5.26067C1.00683 5.07441 1.02747 4.89217 1.05767 4.71195L8.64513 15.8696C8.73171 15.997 8.86965 16.075 9.01866 16.0876C9.0685 16.0916 9.11884 16.0891 9.16918 16.078C9.37004 16.0342 9.52409 15.8721 9.55781 15.6693L9.6882 14.8864C9.73955 14.5784 9.91675 14.3065 10.1735 14.1409C10.2873 14.0674 10.4101 14.0201 10.5359 13.9989C10.5591 13.9954 10.5818 13.9959 10.6049 13.9939C10.6633 13.9884 10.7222 13.9879 10.7811 13.9939C10.835 13.9994 10.8883 14.008 10.9412 14.0226C11.0313 14.0483 11.1164 14.084 11.1929 14.1308C11.2035 14.1374 11.212 14.1464 11.2221 14.1535C11.284 14.1943 11.3399 14.2416 11.3907 14.2944C11.4124 14.3171 11.431 14.3418 11.4501 14.3659C11.4854 14.4102 11.5161 14.457 11.5433 14.5069C11.5579 14.5341 11.5735 14.5607 11.5856 14.5894C11.6183 14.667 11.6455 14.7475 11.6576 14.8336C11.6576 14.8351 11.6586 14.8361 11.6586 14.8376L11.5785 18.5961C11.5755 18.733 11.6289 18.8659 11.726 18.9631L15.7533 22.9904L15.7589 22.9849C15.7871 23.0161 15.8127 23.0498 15.8429 23.08L18.2946 25.5316C19.029 26.2661 20.1587 26.473 21.1071 26.0471L28.6427 22.6561L28.901 23.2174C29.0651 23.7933 29.0082 24.405 28.7273 24.9668Z" fill="#4F4F4F"/>
</svg>
