<svg width="30" height="30" viewBox="0 0 30 30" fill="none" xmlns="http://www.w3.org/2000/svg">
<g clip-path="url(#clip0)">
<path d="M22 15.9995C21.2222 16.0012 20.4464 16.0782 19.6835 16.2295C21.1819 13.7445 21.9822 10.9013 22 7.99955C21.9817 5.63534 21.6194 3.28639 20.9245 1.02655C20.663 0.239541 19.813 -0.18646 19.026 0.075047C18.239 0.336554 17.813 1.18654 18.0745 1.97355C18.6664 3.92836 18.978 5.95723 19 7.99955C19 10.9435 17.9365 13.8145 15.8385 16.535C15.552 16.9075 15.235 17.278 14.9045 17.6425C14.832 17.6195 14.7595 17.604 14.687 17.587C14.5153 17.326 14.3497 17.0769 14.19 16.8396C20.9405 10.8795 16.505 0.407047 16.4585 0.299547C16.3789 0.117253 16.1989 -0.000549413 16 -0.000452983C0.900002 -0.000452983 0.0345025 14.316 0.0100025 14.8805C0.00324136 14.9199 -0.00010447 14.9597 2.48496e-06 14.9995V16.9995C0.00042823 17.046 0.00749998 17.0921 0.0210025 17.1365C0.825046 19.5768 2.16788 21.8048 3.95 23.6556C4.01127 23.7177 4.05523 23.7947 4.0775 23.879L4.85 26.9656C4.9963 27.5608 5.40927 28.0552 5.969 28.3051C7.379 28.9381 10.6195 29.9996 16.5 29.9996C22.966 29.9996 26.55 28.7116 27.7905 28.1576C28.1672 27.9886 28.4819 27.7063 28.6905 27.3501C29.5466 25.8768 29.9983 24.2035 30 22.4995V19.4995C30 19.367 29.9473 19.2398 29.8535 19.146C27.7103 17.1693 24.9152 16.0495 22 15.9995ZM29 19.7185V21.4846C27.721 20.5706 25.139 18.9995 22.5 18.9995C20.9568 19.0301 19.4567 19.5144 18.187 20.392C17.7837 20.6376 17.3675 20.8611 16.94 21.0616C16.9777 20.8765 16.9978 20.6884 17 20.4995C16.9972 20.2978 16.9746 20.0969 16.9325 19.8995C17.6552 19.1295 18.3194 18.3066 18.9195 17.4375C19.9199 17.1442 20.9575 16.9967 22 16.9995C24.579 17.0619 27.0551 18.0237 29 19.7185ZM11.356 19.084C11.233 18.716 11.11 18.316 10.981 17.862C10.7243 16.7929 10.0102 15.8908 9.0285 15.3955C7.333 14.563 4.77 14.84 1 16.268V15.0615C1.2905 14.569 3.4695 12.9995 6 12.9995C9.66 12.9995 10.791 13.641 13.116 17.0355C13.228 17.1995 13.345 17.3736 13.466 17.5506C12.5661 17.7143 11.7895 18.2786 11.356 19.084ZM14 18.4995C14.1027 18.4996 14.2051 18.5078 14.3065 18.524C14.4895 18.552 14.6679 18.605 14.8365 18.6815C14.9817 18.7471 15.1178 18.8311 15.2415 18.9315C15.5548 19.1796 15.7879 19.5146 15.9115 19.8946C15.9693 20.091 15.9991 20.2947 16 20.4995C15.9991 20.8923 15.8845 21.2765 15.67 21.6056C15.2008 22.316 14.3332 22.6514 13.5081 22.4415C12.683 22.2316 12.0812 21.5223 12.0085 20.674C12.0045 20.6155 12 20.5581 12 20.4995C12 19.395 12.8954 18.4995 14 18.4995ZM16.631 17.1451C18.866 14.2465 20 11.1695 20 7.99955C19.9786 5.84954 19.6502 3.71362 19.0245 1.65655C18.9389 1.39352 19.0827 1.1109 19.3458 1.0253C19.6088 0.939693 19.8914 1.08352 19.977 1.34655C20.6327 3.50426 20.9772 5.74451 21 7.99955C20.9674 11.1265 19.988 14.1703 18.191 16.7295C17.6821 17.4814 17.1227 18.1977 16.5165 18.8736C16.3421 18.6002 16.1239 18.3574 15.8705 18.1551L15.8645 18.1511L15.8585 18.1451C15.8465 18.135 15.8325 18.1271 15.8205 18.1175C16.104 17.7996 16.379 17.472 16.631 17.1451ZM15.662 1.00205C16.306 2.69505 19.0955 11.0601 13.62 16.0126C11.3175 12.7701 9.7915 11.9995 6 11.9995C4.27088 12.0325 2.5903 12.5771 1.1705 13.5645C1.753 10.038 4.3415 1.17505 15.662 1.00205ZM27.83 26.8421C27.7263 27.0187 27.57 27.1585 27.383 27.2421C26.2 27.7721 22.7735 28.9996 16.5 28.9996C10.806 28.9996 7.7155 27.9931 6.3805 27.3931C6.10065 27.2683 5.89427 27.0212 5.8215 26.7236L5.05 23.6371C4.98551 23.3825 4.85514 23.1493 4.672 22.9611C3.11998 21.3298 1.91396 19.4015 1.1265 17.292C4.697 15.9125 7.1435 15.584 8.588 16.292C9.31531 16.663 9.83977 17.3385 10.019 18.135C10.2511 19.0843 10.5916 20.0037 11.034 20.875C11.1827 22.0823 12.0482 23.0789 13.2226 23.3955C14.397 23.7121 15.6462 23.2854 16.3815 22.3165C17.1993 22.0731 17.9785 21.7146 18.6955 21.2521C19.788 20.6086 20.8205 19.9995 22.5 19.9995C25.336 19.9995 28.2455 22.1425 28.99 22.73C28.9513 24.1759 28.5526 25.5892 27.83 26.8421Z" fill="#4F4F4F"/>
</g>
<defs>
<clipPath id="clip0">
<rect width="30" height="30" fill="white"/>
</clipPath>
</defs>
</svg>
