<svg width="30" height="30" viewBox="0 0 30 30" fill="none" xmlns="http://www.w3.org/2000/svg">
<path d="M15.7812 8.78228H15.7847C16.4092 8.78373 17.0334 8.75385 17.655 8.69275C17.7087 8.6869 17.7608 8.67048 17.8082 8.64443C17.8556 8.61838 17.8974 8.58322 17.9311 8.54097C17.9649 8.49871 17.9899 8.4502 18.0049 8.39823C18.0198 8.34625 18.0243 8.29184 18.0181 8.23812C18.0119 8.18439 17.9952 8.13242 17.9688 8.0852C17.9425 8.03797 17.9071 7.99642 17.8646 7.96293C17.8222 7.92944 17.7735 7.90469 17.7214 7.89008C17.6694 7.87547 17.6149 7.8713 17.5612 7.87782C16.9812 7.94415 16.3031 7.95751 15.7772 7.96196C15.6684 7.96239 15.5642 8.00603 15.4876 8.08325C15.411 8.16048 15.3682 8.26498 15.3687 8.37376C15.3691 8.48254 15.4127 8.58669 15.4899 8.6633C15.5672 8.73992 15.6717 8.78271 15.7805 8.78228H15.7812Z" fill="#4F4F4F"/>
<path d="M26.5779 22.4573C26.2498 21.6405 25.6741 21.1385 24.9973 21.0804C24.4409 21.0316 23.8741 21.2826 23.3407 21.7971C23.6923 18.6295 24.0438 15.2325 24.3907 11.6721C24.8574 6.87022 23.8945 4.20116 21.2822 3.05109C21.1093 2.48846 20.76 1.99636 20.286 1.64742C19.812 1.29849 19.2383 1.11122 18.6497 1.11327H11.3499C10.761 1.1109 10.1869 1.29801 9.71252 1.64696C9.23814 1.99591 8.88858 2.48819 8.71548 3.05109C6.10384 4.2014 5.14126 6.87023 5.6079 11.6719C5.9529 15.233 6.30634 18.63 6.65814 21.7969C6.12446 21.2826 5.55657 21.0316 5.00134 21.0794C4.32446 21.1376 3.74814 21.6396 3.42071 22.4564C2.86806 23.8343 3.39728 26.044 3.93775 27.6553C4.05944 28.0147 4.29091 28.3268 4.59948 28.5475C4.90806 28.7683 5.27817 28.8866 5.65759 28.8858H24.342C24.7213 28.8868 25.0914 28.7686 25.4001 28.548C25.7087 28.3274 25.9404 28.0155 26.0623 27.6562C26.6027 26.0449 27.1315 23.8359 26.5779 22.4573ZM23.5751 11.5924C23.1813 15.6452 22.7782 19.4876 22.3798 23.018C22.2577 23.1445 22.1041 23.236 21.9347 23.283C21.7654 23.33 21.5865 23.3308 21.4167 23.2854C21.6199 21.7664 22.073 18.2831 22.6381 13.2504C22.9294 10.6547 22.5752 8.85937 21.5857 7.91413C21.468 7.80372 21.3409 7.70366 21.206 7.61507C21.4662 6.71694 21.5405 5.53241 21.4308 4.03546C22.8089 4.83304 24.0602 6.6028 23.5751 11.5924ZM10.882 12.0516L14.1431 17.9109C13.9587 18.0107 13.7928 18.1415 13.6528 18.2976L10.2375 12.0516H10.882ZM19.1175 12.0539H19.7623L16.3498 18.3012C16.2094 18.1441 16.0429 18.0124 15.8576 17.9121L19.1175 12.0539ZM14.0037 19.5122C14.0036 19.3151 14.0619 19.1225 14.1713 18.9587C14.2807 18.7948 14.4363 18.667 14.6183 18.5916C14.8003 18.5161 15.0006 18.4963 15.1938 18.5347C15.3871 18.5731 15.5646 18.6679 15.704 18.8072C15.8433 18.9465 15.9382 19.124 15.9767 19.3172C16.0152 19.5104 15.9955 19.7108 15.9201 19.8928C15.8447 20.0748 15.717 20.2304 15.5532 20.3399C15.3894 20.4494 15.1968 20.5078 14.9998 20.5078C14.7358 20.5075 14.4827 20.4025 14.2959 20.2159C14.1092 20.0292 14.0041 19.7762 14.0037 19.5122ZM14.7092 25.6922V21.303C14.9029 21.3376 15.1013 21.3376 15.2951 21.303V25.6929L14.7092 25.6922ZM16.1154 20.9426C16.3756 20.7428 16.5761 20.4754 16.6948 20.1696C16.8135 19.8638 16.846 19.5312 16.7888 19.2082L20.697 12.0537H21.0701C21.1789 12.0537 21.2832 12.0104 21.3601 11.9335C21.437 11.8566 21.4802 11.7523 21.4802 11.6435C21.4802 11.5347 21.437 11.4304 21.3601 11.3535C21.2832 11.2766 21.1789 11.2333 21.0701 11.2333H18.2576C18.1551 11.233 18.0563 11.271 17.9805 11.3399C17.9047 11.4088 17.8575 11.5036 17.8481 11.6056C17.8387 11.7076 17.8679 11.8095 17.93 11.891C17.992 11.9725 18.0823 12.0279 18.1831 12.0462L15.0389 17.6976C15.0258 17.6976 15.0129 17.6958 14.9998 17.6958C14.9867 17.6958 14.9763 17.6974 14.963 17.6976L11.8165 12.0438C11.9173 12.0256 12.0076 11.9702 12.0696 11.8887C12.1316 11.8071 12.1608 11.7053 12.1515 11.6033C12.1421 11.5013 12.0949 11.4065 12.0191 11.3376C11.9433 11.2686 11.8444 11.2306 11.742 11.231H8.92946C8.82068 11.231 8.71636 11.2742 8.63944 11.3511C8.56252 11.4281 8.51931 11.5324 8.51931 11.6412C8.51931 11.7499 8.56252 11.8543 8.63944 11.9312C8.71636 12.0081 8.82068 12.0513 8.92946 12.0513H9.30235L13.212 19.2019C13.1532 19.5267 13.1853 19.8615 13.3047 20.1693C13.4242 20.4771 13.6263 20.7459 13.8888 20.9461V21.9801C12.3421 22.0873 10.8192 22.4189 9.36798 22.9645C9.15329 21.3487 8.71712 17.9571 8.17689 13.158C7.91907 10.863 8.19728 9.25429 8.98126 8.50546C9.0197 8.46866 9.06493 8.43515 9.10735 8.40187C9.20791 8.59317 9.32952 8.77264 9.46993 8.93694C10.5537 10.1906 12.7134 10.1906 14.9998 10.1906C17.2861 10.1906 19.4449 10.1906 20.5289 8.93882C20.6696 8.77426 20.7913 8.59447 20.892 8.4028C20.9346 8.43726 20.9801 8.46983 21.0188 8.50687C21.8023 9.25523 22.0802 10.864 21.8227 13.159C21.2817 17.9637 20.846 21.353 20.6313 22.9662C19.1817 22.4207 17.6605 22.0886 16.1154 21.9801V20.9426ZM11.3499 1.93359H18.6497C19.1365 1.93277 19.6057 2.11544 19.9638 2.44518C20.3219 2.77492 20.5426 3.22751 20.5819 3.71273C20.7956 6.02882 20.5634 7.65023 19.9099 8.40023C19.0709 9.3703 17.0934 9.3703 14.9998 9.3703C12.9061 9.3703 10.9287 9.3703 10.0896 8.40023C9.43618 7.65023 9.20392 6.02882 9.41954 3.69069C9.46285 3.20931 9.6852 2.7617 10.0426 2.43634C10.4 2.11099 10.8665 1.93158 11.3499 1.93359ZM8.56829 4.03569C8.45767 5.52937 8.53173 6.7153 8.79282 7.6153C8.65815 7.70367 8.53135 7.80349 8.41384 7.91366C7.42407 8.85913 7.06993 10.6559 7.3615 13.2504C7.92751 18.2794 8.37939 21.7648 8.58282 23.2856C8.413 23.331 8.23412 23.3301 8.06476 23.283C7.89541 23.2359 7.74176 23.1443 7.61978 23.0177C7.22134 19.4876 6.81798 15.6452 6.42446 11.5924C5.93931 6.60327 7.1904 4.83351 8.56829 4.03569ZM25.2846 27.394C25.2177 27.5907 25.0907 27.7614 24.9216 27.882C24.7525 28.0027 24.5497 28.0672 24.342 28.0664H5.65759C5.44995 28.0672 5.24731 28.0028 5.07822 27.8823C4.90914 27.7618 4.78215 27.5912 4.71517 27.3947C4.02282 25.3322 3.82853 23.6447 4.1822 22.7627C4.30431 22.458 4.58251 21.9396 5.07282 21.8979C5.58986 21.851 6.21282 22.3519 6.77673 23.2662C7.00979 23.6453 7.37311 23.9263 7.79859 24.0567C8.22408 24.187 8.68249 24.1577 9.0879 23.9742C10.6116 23.3173 12.235 22.9211 13.89 22.8023V25.6922H10.3357C10.2269 25.6922 10.1226 25.7354 10.0457 25.8123C9.96877 25.8892 9.92556 25.9936 9.92556 26.1023C9.92556 26.2111 9.96877 26.3154 10.0457 26.3924C10.1226 26.4693 10.2269 26.5125 10.3357 26.5125H19.6638C19.7726 26.5125 19.8769 26.4693 19.9539 26.3924C20.0308 26.3154 20.074 26.2111 20.074 26.1023C20.074 25.9936 20.0308 25.8892 19.9539 25.8123C19.8769 25.7354 19.7726 25.6922 19.6638 25.6922H16.1154V22.8026C17.769 22.9229 19.3909 23.319 20.9138 23.9744C21.3191 24.1576 21.7773 24.1866 22.2025 24.0562C22.6277 23.9258 22.9908 23.6448 23.2238 23.2659C23.7879 22.3519 24.409 21.8512 24.9279 21.8976C25.417 21.9394 25.6952 22.4573 25.8185 22.7625C26.171 23.6442 25.9767 25.3324 25.2846 27.394Z" fill="#B80E0F"/>
</svg>
