<svg width="25" height="25" viewBox="0 0 25 25" fill="none" xmlns="http://www.w3.org/2000/svg">
<path d="M23.3242 10.8745C23.1324 4.84478 18.3522 0 12.5 0C6.64775 0 1.86758 4.84478 1.67583 10.8745C0.70249 11.0698 0.0015625 11.9239 0 12.9166V18.75C0.00136719 19.9 0.933301 20.832 2.08335 20.8333C2.08574 22.9034 3.76328 24.581 5.83335 24.5833H9.69922C9.84688 24.8403 10.1203 24.9991 10.4166 25H14.1666C14.6267 24.9996 14.9995 24.6267 15 24.1667V22.5C14.9996 22.0399 14.6267 21.6671 14.1666 21.6667H10.4166C10.1203 21.6676 9.84688 21.8264 9.69922 22.0833H5.83335C5.14331 22.0826 4.58408 21.5233 4.58335 20.8333H5.83335C6.29341 20.8329 6.66621 20.46 6.6667 20V11.6667C6.66626 11.2066 6.29341 10.8338 5.83335 10.8333H4.18677C4.396 6.20254 8.03901 2.5 12.5 2.5C16.961 2.5 20.604 6.20254 20.8132 10.8334H19.1667C18.7066 10.8338 18.3338 11.2066 18.3333 11.6667V20C18.3338 20.4601 18.7066 20.8329 19.1667 20.8333H22.9167C24.0667 20.832 24.9986 19.9 25 18.75V12.9166C24.9984 11.9239 24.2975 11.0698 23.3242 10.8745ZM10.4166 22.5H14.1666L14.1672 24.1667H10.4166V22.5ZM5.83335 22.9167H9.58335V23.75H5.83335C4.22329 23.7482 2.91851 22.4434 2.9167 20.8333H3.75C3.75137 21.9833 4.6833 22.9153 5.83335 22.9167ZM5.83335 11.6667L5.83394 20H2.08335C1.39331 19.9993 0.834082 19.44 0.83335 18.75V12.9166C0.834082 12.2266 1.39331 11.6674 2.08335 11.6667H5.83335ZM12.5 1.66665C7.57915 1.66665 3.55303 5.7418 3.34346 10.8333H2.51016C2.72109 5.28218 7.12026 0.833301 12.5 0.833301C17.8797 0.833301 22.2789 5.28218 22.4898 10.8333H21.6565C21.447 5.74185 17.4208 1.66665 12.5 1.66665ZM24.1667 18.75C24.1659 19.44 23.6067 19.9993 22.9167 20H19.1667V11.6667H22.9167C23.6067 11.6674 24.1659 12.2266 24.1667 12.9166V18.75Z" fill="#B80E0F"/>
<path d="M17.0833 16.25H16.25V15.2083C16.25 14.9782 16.0635 14.7917 15.8333 14.7917C15.6032 14.7917 15.4167 14.9782 15.4167 15.2083V16.25H13.651L15.7724 12.7144C15.849 12.5868 15.8517 12.428 15.7794 12.2978C15.7072 12.1677 15.571 12.0859 15.4222 12.0834C15.2733 12.0809 15.1344 12.158 15.0578 12.2856L12.5578 16.4522C12.4806 16.5809 12.4786 16.7412 12.5525 16.8719C12.6264 17.0026 12.7649 17.0833 12.915 17.0833H15.4167V18.3333C15.4167 18.5635 15.6032 18.75 15.8333 18.75C16.0634 18.75 16.25 18.5635 16.25 18.3333V17.0833H17.0833C17.3134 17.0833 17.5 16.8968 17.5 16.6667C17.5 16.4366 17.3135 16.25 17.0833 16.25Z" fill="#B80E0F"/>
<path d="M7.73013 17.9609C7.55752 18.0474 7.46699 18.2413 7.51138 18.4292C7.55576 18.6172 7.72353 18.7499 7.91665 18.75H11.6667C11.8968 18.75 12.0833 18.5635 12.0833 18.3334C12.0833 18.1032 11.8968 17.9167 11.6667 17.9167H9.34814C10.3768 17.144 11.6667 15.8415 11.6667 14.1667C11.6667 13.3003 11.1304 12.5243 10.3199 12.2179C9.50937 11.9116 8.5939 12.1389 8.0208 12.7887C7.86855 12.9613 7.88506 13.2247 8.05762 13.3769C8.23022 13.5292 8.49355 13.5127 8.6458 13.3401C8.9896 12.9501 9.53892 12.8136 10.0252 12.9974C10.5116 13.1812 10.8333 13.6468 10.8333 14.1667C10.8333 16.377 7.76103 17.9452 7.73013 17.9609Z" fill="#B80E0F"/>
</svg>
