<svg width="35" height="35" viewBox="0 0 35 35" fill="none" xmlns="http://www.w3.org/2000/svg">
<path d="M17.5 0C7.85034 0 0 7.85034 0 17.5C0 27.1497 7.85034 35 17.5 35C27.1497 35 35 27.1497 35 17.5C35 7.85034 27.1497 0 17.5 0ZM17.5 33.4091C8.72773 33.4091 1.59091 26.2723 1.59091 17.5C1.59091 8.72773 8.72773 1.59091 17.5 1.59091C26.2723 1.59091 33.4091 8.72773 33.4091 17.5C33.4091 26.2723 26.2723 33.4091 17.5 33.4091Z" fill="#4F4F4F"/>
<path d="M10.3347 11.1367C11.6504 11.1367 12.7211 12.2073 12.7211 13.523C12.7211 13.9621 13.0774 14.3185 13.5165 14.3185C13.9556 14.3185 14.312 13.9621 14.312 13.523C14.312 11.3299 12.5278 9.54575 10.3347 9.54575C8.14163 9.54575 6.35742 11.3299 6.35742 13.523C6.35742 13.9621 6.71379 14.3185 7.15288 14.3185C7.59197 14.3185 7.94833 13.9621 7.94833 13.523C7.94833 12.2073 9.01901 11.1367 10.3347 11.1367Z" fill="#4F4F4F"/>
<path d="M24.656 9.54575C22.4629 9.54575 20.6787 11.3299 20.6787 13.523C20.6787 13.9621 21.0351 14.3185 21.4742 14.3185C21.9132 14.3185 22.2696 13.9621 22.2696 13.523C22.2696 12.2073 23.3403 11.1367 24.656 11.1367C25.9716 11.1367 27.0423 12.2073 27.0423 13.523C27.0423 13.9621 27.3987 14.3185 27.8377 14.3185C28.2768 14.3185 28.6332 13.9621 28.6332 13.523C28.6332 11.3299 26.849 9.54575 24.656 9.54575Z" fill="#4F4F4F"/>
<path d="M26.2593 19.8862H20.6911H17.5093H14.3275H8.75932C8.32023 19.8862 7.96387 20.2425 7.96387 20.6816C7.96387 25.9451 12.2458 30.2271 17.5093 30.2271C22.7728 30.2271 27.0548 25.9451 27.0548 20.6816C27.0548 20.2425 26.6984 19.8862 26.2593 19.8862ZM18.3048 21.4771H19.8957V23.068H18.3048V21.4771ZM16.7139 21.4771V23.8634V24.6589H15.123V21.4771H16.7139ZM17.5093 28.6362C13.392 28.6362 9.99466 25.4909 9.59455 21.4771H13.532V25.4544C13.532 25.8934 13.8884 26.2498 14.3275 26.2498H17.5093C17.9484 26.2498 18.3048 25.8934 18.3048 25.4544V24.6589H20.6911C21.1302 24.6589 21.4866 24.3025 21.4866 23.8634V21.4771H25.4241C25.024 25.4909 21.6266 28.6362 17.5093 28.6362Z" fill="#4F4F4F"/>
</svg>
