<svg width="35" height="35" viewBox="0 0 35 35" fill="none" xmlns="http://www.w3.org/2000/svg">
<path d="M25.2859 12.91C25.2859 14.0238 24.3836 14.9266 23.2699 14.9266C22.1567 14.9266 21.2539 14.0238 21.2539 12.91C21.2539 11.7963 22.1567 10.894 23.2699 10.894C24.3836 10.894 25.2859 11.7963 25.2859 12.91Z" fill="#4F4F4F"/>
<path d="M13.6941 12.91C13.6941 14.0238 12.7913 14.9266 11.6781 14.9266C10.5649 14.9266 9.66211 14.0238 9.66211 12.91C9.66211 11.7963 10.5649 10.894 11.6781 10.894C12.7913 10.894 13.6941 11.7963 13.6941 12.91Z" fill="#4F4F4F"/>
<path d="M10.6423 27.9806C10.1837 27.9806 9.81152 27.609 9.81152 27.1499C9.81152 23.5638 12.6959 20.6461 16.2416 20.6461H19.0419C22.5876 20.6461 25.472 23.5477 25.472 27.1139C25.472 27.573 25.1004 27.9452 24.6412 27.9452C24.1826 27.9452 23.8111 27.573 23.8111 27.1139C23.8111 24.4643 21.6716 22.3081 19.0419 22.3081H16.2417C13.612 22.3081 11.4731 24.4798 11.4731 27.1498C11.473 27.609 11.1008 27.9806 10.6423 27.9806Z" fill="#4F4F4F"/>
<path d="M17.5007 35C7.85334 35 0.00488281 27.1493 0.00488281 17.4997C0.00488281 7.85068 7.85334 0 17.5007 0C27.1475 0 34.996 7.85068 34.996 17.4997C34.996 27.1493 27.1475 35 17.5007 35ZM17.5007 1.6621C8.76939 1.6621 1.66643 8.76679 1.66643 17.4997C1.66643 26.2333 8.76946 33.3379 17.5007 33.3379C26.2315 33.3379 33.3344 26.2332 33.3344 17.4997C33.3344 8.76673 26.2315 1.6621 17.5007 1.6621Z" fill="#4F4F4F"/>
</svg>
