<svg width="18" height="18" viewBox="0 0 18 18" fill="none" xmlns="http://www.w3.org/2000/svg" class="ionicon">
<g clip-path="url(#clip0)">
<path d="M5.72705 0.0142186C5.52782 -0.0420655 5.32069 0.0737721 5.2643 0.272963L0.389417 17.5226C0.333133 17.7219 0.44897 17.929 0.648162 17.9854C0.681349 17.9949 0.715661 17.9998 0.750148 18C0.918051 17.9999 1.06539 17.8883 1.11088 17.7266L5.9858 0.476971C6.04208 0.277745 5.92624 0.0706081 5.72705 0.0142186Z" fill="#4F4F4F"/>
<path d="M17.6106 17.523L12.7357 0.273283C12.6794 0.0739507 12.4721 -0.0419924 12.2728 0.014362C12.0734 0.0706812 11.9575 0.277958 12.0138 0.477291L16.8888 17.7269C16.9344 17.8885 17.082 18.0001 17.2499 17.9999C17.2844 17.9998 17.3187 17.995 17.3519 17.9857C17.5511 17.9293 17.6669 17.7222 17.6106 17.523Z" fill="#4F4F4F"/>
<path d="M8.99999 14.25C8.79289 14.25 8.62498 14.4179 8.62498 14.625V17.6249C8.62498 17.8321 8.79289 18 8.99999 18C9.20709 18 9.37499 17.8321 9.37499 17.6249V14.625C9.37495 14.4179 9.20709 14.25 8.99999 14.25Z" fill="#4F4F4F"/>
<path d="M8.99999 8.25018C8.79289 8.25018 8.62498 8.41809 8.62498 8.62519V11.6251C8.62498 11.8322 8.79289 12.0001 8.99999 12.0001C9.20709 12.0001 9.37499 11.8322 9.37499 11.6251V8.62519C9.37495 8.41809 9.20709 8.25018 8.99999 8.25018Z" fill="#4F4F4F"/>
<path d="M8.99999 3.00031C8.79289 3.00031 8.62498 3.16821 8.62498 3.37531V5.62526C8.62498 5.83237 8.79289 6.00027 8.99999 6.00027C9.20709 6.00027 9.37499 5.83237 9.37499 5.62526V3.37531C9.37495 3.16821 9.20709 3.00031 8.99999 3.00031Z" fill="#4F4F4F"/>
<path d="M8.99999 0.000366211C8.79289 0.000366211 8.62498 0.168269 8.62498 0.375371V1.12534C8.62498 1.33245 8.79289 1.50035 8.99999 1.50035C9.20709 1.50035 9.37499 1.33245 9.37499 1.12534V0.375335C9.37495 0.168234 9.20709 0.000366211 8.99999 0.000366211Z" fill="#4F4F4F"/>
</g>
<defs>
<clipPath id="clip0">
<rect width="18" height="18" fill="white"/>
</clipPath>
</defs>
</svg>
