<svg width="18" height="18" viewBox="0 0 18 18" fill="none" xmlns="http://www.w3.org/2000/svg" class="ionicon">
<path d="M12.8993 11.1233C13.7082 10.0273 14.1532 8.64656 14.1532 7.18275C14.1532 3.85217 11.8414 1.14258 9 1.14258C6.15831 1.14258 3.84677 3.85217 3.84677 7.18275C3.84677 8.64656 4.29183 10.027 5.10097 11.1233C1.98958 12.1237 0 14.2265 0 16.5671V16.8574H18V16.5671C18 14.2268 16.0104 12.124 12.8993 11.1233ZM9 1.72319C11.5214 1.72319 13.5726 4.17237 13.5726 7.1827C13.5726 8.66335 13.0825 10.0496 12.1926 11.0866C11.3321 12.0897 10.1984 12.6419 8.99995 12.6419C7.8018 12.6419 6.66808 12.0897 5.80726 11.0869C4.91744 10.0496 4.42733 8.66276 4.42733 7.1827C4.42743 4.17237 6.47856 1.72319 9 1.72319ZM0.59253 16.2768C0.757716 14.2593 2.63816 12.4588 5.49173 11.6061C5.53644 11.6548 5.5849 11.6976 5.63078 11.7446C5.68795 11.8026 5.74459 11.861 5.80351 11.9161C5.87523 11.9826 5.94894 12.0444 6.02329 12.1063C6.08338 12.1565 6.14259 12.2076 6.20414 12.2543C6.28136 12.313 6.3612 12.3664 6.44046 12.4198C6.5026 12.4619 6.56415 12.5054 6.62774 12.5444C6.7105 12.5949 6.79555 12.639 6.8806 12.684C6.94449 12.7177 7.00721 12.754 7.07221 12.7847C7.16076 12.8268 7.25136 12.8614 7.34191 12.8974C7.40609 12.9229 7.46905 12.9517 7.53439 12.9743C7.63019 13.0074 7.72804 13.0326 7.8253 13.0593C7.88744 13.0762 7.9484 13.0968 8.01141 13.1113C8.1203 13.136 8.2309 13.1519 8.34149 13.1682C8.39492 13.176 8.44717 13.1882 8.50089 13.1946C8.66578 13.2129 8.83243 13.2231 9.00024 13.2231C9.16806 13.2231 9.33441 13.2132 9.4996 13.1946C9.55448 13.1885 9.6082 13.1757 9.66303 13.1676C9.77222 13.1511 9.88164 13.1357 9.98907 13.1113C10.0535 13.0965 10.1162 13.0755 10.1795 13.0578C10.2756 13.0317 10.3717 13.0067 10.4658 12.9742C10.5325 12.9513 10.5973 12.9217 10.6634 12.8956C10.752 12.8601 10.8408 12.8262 10.9276 12.785C10.9941 12.7536 11.0583 12.7168 11.1236 12.6819C11.2069 12.6378 11.2906 12.5942 11.3719 12.5449C11.4366 12.5052 11.499 12.461 11.5623 12.418C11.641 12.3649 11.7194 12.3126 11.7957 12.2546C11.8578 12.2075 11.9176 12.1559 11.978 12.1054C12.0521 12.0435 12.1258 11.982 12.1969 11.9158C12.2556 11.8612 12.3119 11.8029 12.3685 11.7453C12.415 11.698 12.4637 11.655 12.5087 11.606C15.362 12.459 17.2424 14.2595 17.4076 16.277H0.59253V16.2768Z" fill="none"/>
</svg>
