<svg width="25" height="25" viewBox="0 0 25 25" fill="none" xmlns="http://www.w3.org/2000/svg">
<path d="M1.17188 23.0469H4.4C4.89492 23.7543 5.71406 24.2188 6.64062 24.2188C7.56719 24.2188 8.38633 23.7543 8.88125 23.0469H16.1187C16.6137 23.7543 17.4328 24.2188 18.3594 24.2188C19.2859 24.2188 20.1051 23.7543 20.6 23.0469H23.8281C23.9348 23.0469 24.0367 23.0035 24.1105 22.9258C24.184 22.8488 24.2234 22.7449 24.2184 22.6387C24.2141 22.5457 24.1113 20.3441 23.7711 19.0379C23.6402 18.557 23.5023 18.2625 23.323 18.0832C22.9434 17.7035 22.3727 17.4234 21.6316 17.1188C21.4875 17.0602 21.3402 17.0016 21.1918 16.9426C20.5359 16.6828 19.8578 16.4141 19.3574 16.0812C18.9176 15.7879 18.5172 15.2305 18.0531 14.5848C17.3844 13.6535 16.6266 12.5984 15.4355 11.884C13.6039 10.7855 8.77187 9.71484 5.66602 11.4887C4.21094 12.3184 3.59023 13.7004 3.0418 14.9195C2.83086 15.3883 2.63164 15.8316 2.40195 16.2004C2.03164 16.7988 1.63203 17.1047 1.10742 17.1926C0.919531 17.2246 0.78125 17.3875 0.78125 17.5781V22.6562C0.78125 22.8723 0.955859 23.0469 1.17188 23.0469ZM6.64062 23.4375C5.56367 23.4375 4.6875 22.5613 4.6875 21.4844C4.6875 20.4074 5.56367 19.5312 6.64062 19.5312C7.71758 19.5312 8.59375 20.4074 8.59375 21.4844C8.59375 22.5613 7.71758 23.4375 6.64062 23.4375ZM18.3594 23.4375C17.2824 23.4375 16.4062 22.5613 16.4062 21.4844C16.4062 20.4074 17.2824 19.5312 18.3594 19.5312C19.4363 19.5312 20.3125 20.4074 20.3125 21.4844C20.3125 22.5613 19.4363 23.4375 18.3594 23.4375ZM22.843 18.75H21.875V18.0762C22.2387 18.2457 22.5648 18.4297 22.7707 18.6355C22.7793 18.6441 22.8055 18.6758 22.843 18.75ZM6.05312 12.1672C8.85508 10.5652 13.3891 11.5676 15.0332 12.5535C16.0855 13.1848 16.7938 14.1707 17.4184 15.0402C17.9055 15.7184 18.3656 16.359 18.9238 16.7312C19.4934 17.1098 20.2102 17.3937 20.9031 17.6684C20.9672 17.6937 21.0293 17.7191 21.093 17.7441V19.1406C21.093 19.3566 21.2676 19.5312 21.4836 19.5312H23.0824C23.2723 20.4258 23.3719 21.6398 23.4133 22.2656H20.9777C21.0527 22.018 21.0938 21.7559 21.0938 21.4844C21.0938 19.977 19.8668 18.75 18.3594 18.75C16.852 18.75 15.625 19.977 15.625 21.4844C15.625 21.7559 15.666 22.018 15.7402 22.2656H9.25977C9.33398 22.018 9.375 21.7559 9.375 21.4844C9.375 19.977 8.14805 18.75 6.64062 18.75C5.1332 18.75 3.90625 19.977 3.90625 21.4844C3.90625 21.7559 3.94727 22.018 4.02148 22.2656H1.5625V19.9219H2.73438C2.95039 19.9219 3.125 19.7473 3.125 19.5312V16.5047C3.35352 16.1176 3.55078 15.693 3.75391 15.2402C4.27773 14.075 4.81953 12.8707 6.05312 12.1672ZM2.34375 17.4641V19.1406H1.5625V17.8859C1.87344 17.7891 2.1293 17.6379 2.34375 17.4641Z" fill="#B80E0F"/>
<path d="M4.68827 16.4062H16.6793C16.8262 16.4062 16.9605 16.3238 17.0273 16.193C17.0941 16.0621 17.082 15.9051 16.9957 15.7863L16.7824 15.4934C16.1738 14.6469 15.5445 13.7715 14.6316 13.223C13.7305 12.6832 11.7176 12.1094 9.76053 12.1094C8.43162 12.1094 7.28358 12.3637 6.44061 12.8453C5.42733 13.4242 4.93787 14.5113 4.46366 15.5648L4.3328 15.8531C4.27733 15.9742 4.28748 16.1148 4.35897 16.2266C4.43162 16.3387 4.55506 16.4062 4.68827 16.4062ZM15.9137 15.625H11.3281V13.0129C12.5433 13.193 13.6519 13.5469 14.2297 13.8934C14.8969 14.2938 15.4211 14.9496 15.9137 15.625ZM6.82811 13.5234C7.55311 13.1094 8.56717 12.8906 9.76053 12.8906C10.0207 12.8906 10.284 12.9031 10.5469 12.9238V15.625H5.29413C5.6953 14.743 6.10545 13.9367 6.82811 13.5234Z" fill="#B80E0F"/>
<path d="M3.125 12.8906V12.1094C2.26328 12.1094 1.5625 11.4086 1.5625 10.5469C1.5625 9.68516 2.26328 8.98438 3.125 8.98438H20.1172C22.3789 8.98438 24.2188 7.14453 24.2188 4.88281C24.2188 2.62109 22.3789 0.78125 20.1172 0.78125H10.1562V1.5625H20.1172C21.948 1.5625 23.4375 3.05195 23.4375 4.88281C23.4375 6.71367 21.948 8.20312 20.1172 8.20312H3.125C1.83242 8.20312 0.78125 9.2543 0.78125 10.5469C0.78125 11.8395 1.83242 12.8906 3.125 12.8906Z" fill="#B80E0F"/>
<path d="M8.20312 0.78125H9.375V1.5625H8.20312V0.78125Z" fill="#B80E0F"/>
<path d="M5.85938 0.78125H7.03125V1.5625H5.85938V0.78125Z" fill="#B80E0F"/>
<path d="M3.90625 0.78125H5.07812V1.5625H3.90625V0.78125Z" fill="#B80E0F"/>
<path d="M2.34375 0.78125H3.125V1.5625H2.34375V0.78125Z" fill="#B80E0F"/>
<path d="M0.78125 0.78125H1.5625V1.5625H0.78125V0.78125Z" fill="#B80E0F"/>
</svg>
